<?xml version="1.0" encoding="UTF-8" standalone="no"?><!DOCTYPE svg PUBLIC "-//W3C//DTD SVG 1.1//EN" "http://www.w3.org/Graphics/SVG/1.1/DTD/svg11.dtd"><svg width="100%" height="100%" viewBox="0 0 124 124" version="1.1" xmlns="http://www.w3.org/2000/svg" xmlns:xlink="http://www.w3.org/1999/xlink" xml:space="preserve" xmlns:serif="http://www.serif.com/" style="fill-rule:evenodd;clip-rule:evenodd;stroke-linejoin:round;stroke-miterlimit:2;"><g><circle cx="61.528" cy="61.528" r="61.528" style="fill:#294776;"/><path d="M26.373,54.764l-10.403,18.976l8.469,0.47l-4.862,10.665l17.722,-0c3.744,-0 5.95,0.81 7.684,3.763c2.196,3.738 1.939,14.638 4.705,18.663c2.339,3.404 7.92,5.489 11.893,5.489c3.973,-0 8.639,-1.633 11.16,-5.332c2.566,-3.764 2.457,-13.514 4.235,-17.251c1.32,-2.777 4.487,-5.792 7.527,-5.332l19.29,-0l-5.332,-10.665l8.625,-0.47l-10.298,-18.976l-70.415,-0Z" style="fill:#fff;"/><path d="M26.544,16.881l-0.171,46.419c0,0 17.582,10.784 22.583,14.585c2.579,6.251 2.353,14.115 2.353,14.115l21.015,-0.157c-0,-0 -0.801,-8.523 2.509,-14.115c4.077,-4.678 21.955,-13.957 21.955,-13.957l-0.156,-47.519c-0,0 -2.912,-2.976 -4.548,-1.881c-4.653,3.11 -23.367,20.857 -23.367,20.857l-14.115,0c0,0 -19.316,-17.421 -23.994,-20.636c-1.658,-1.139 -4.064,2.289 -4.064,2.289Z" style="fill:#f26421;"/><path d="M51.309,92l21.015,-0.157c-0,-0 -7.868,11.108 -10.743,11.134c-3.502,0.032 -10.272,-10.977 -10.272,-10.977Z"/><path d="M26.373,19.546c0,-0 16.17,12.419 16.31,15.055c0.157,2.954 -16.31,11.135 -16.31,11.135l0,-26.19" style="fill:#cb5127;"/><path d="M96.788,19.546c0,-0 -16.17,12.419 -16.31,15.055c-0.156,2.954 16.31,11.135 16.31,11.135l0,-26.19" style="fill:#cb5127;"/><path d="M36.807,53.064l0,10.55c0.792,1.916 3.709,3.354 5.355,3.354c1.91,0 4.319,-1.405 5.226,-3.354l0,-10.55c-0.277,-2.164 -3.501,-3.531 -5.226,-3.531c-1.725,-0 -4.715,1.221 -5.355,3.531Z"/><path d="M75.449,53.064l0,10.55c0.792,1.916 3.709,3.354 5.355,3.354c1.91,0 4.319,-1.405 5.226,-3.354l0,-10.55c-0.277,-2.164 -3.501,-3.531 -5.226,-3.531c-1.725,-0 -4.715,1.221 -5.355,3.531Z"/></g></svg>